# xmcd
# 
# Track frame offsets:
#     150
#     20288
#     36861
#     50767
#     64483
#     82922
#     96134
#     112376
#     127843
#     141802
#     155810
#     169551
#     186424
#     203824
#     219887
#     236747
#     258603
#     278920
# 
# Disc length: 3933
# 
# Revision: 4
# Processed by: cddbd v1.5.2PL0 Copyright (c) Steve Scherf et al.
# Submitted via: fre:ac v1.0.31
# 
DISCID=0c0f5b12
DTITLE=Now That's What I Call Music - Now That's What I Call Country Vol. 4
DYEAR=2011
DGENRE=Country
TTITLE0=Hello World
TTITLE1=If I Die Young
TTITLE2=Who Are You When I'm Not Looking
TTITLE3=Are You Gonna Kiss Me Or Not
TTITLE4=Stuck Like Glue
TTITLE5=Undo It
TTITLE6=Put You In A Song
TTITLE7=Roll With It
TTITLE8=Only Prettier
TTITLE9=Smoke A Little Smoke
TTITLE10=Voices
TTITLE11=Someone Else Calling You Baby
TTITLE12=Come Back Song
TTITLE13=What Do You Want
TTITLE14=Let Me Down Easy
TTITLE15=Back to December
TTITLE16=Colder Weather
TTITLE17=The Breath You Take
EXTD=YEAR: 2011
EXTT0=
EXTT1=
EXTT2=
EXTT3=
EXTT4=
EXTT5=
EXTT6=
EXTT7=
EXTT8=
EXTT9=
EXTT10=
EXTT11=
EXTT12=
EXTT13=
EXTT14=
EXTT15=
EXTT16=
EXTT17=
PLAYORDER=
